<svg width="318" height="121" viewBox="0 0 318 121" fill="none" xmlns="http://www.w3.org/2000/svg">
<path d="M1.77557 97L13.8494 24.2727H62.0028L59.8722 36.9503H27.0952L24.2543 54.2798H53.8352L51.7045 66.9574H22.1236L17.152 97H1.77557ZM60.2717 97L72.3455 24.2727H87.7219L77.7788 84.3224H108.958L106.827 97H60.2717ZM225.959 97L217.223 24.2727H234.02L237.713 74.8054H238.317L259.943 24.2727H274.325L279.226 74.9119H279.865L300.249 24.2727H317.045L284.162 97H269.176L263.281 49.4503H262.713L240.945 97H225.959Z" fill="black"/>
<circle cx="162.5" cy="59.5" r="42.5" fill="black"/>
<circle cx="162.822" cy="59.178" r="12.5568" fill="#D52626"/>
<circle cx="162.822" cy="59.178" r="2.25379" fill="#EEEEEE"/>
<path d="M155.107 52.2148L155.408 51.7318C155.427 51.7318 155.445 51.7318 155.464 51.7318C155.483 51.7272 155.504 51.7225 155.527 51.7178C155.564 51.7132 155.613 51.7062 155.674 51.6968C155.735 51.6875 155.805 51.6782 155.884 51.6688C156.201 51.6315 156.318 51.5545 156.234 51.4378L157.235 51.2908H157.494L157.543 51.3468L157.571 51.5778L157.452 51.6688L157.102 51.6758L156.647 51.8998L156.143 52.0608L156.059 52.2498L156.22 52.6418L156.416 52.6698L156.507 52.8728L156.675 52.8588L156.773 52.9778C156.815 52.9638 156.857 52.9545 156.899 52.9498C156.941 52.9405 156.978 52.9405 157.011 52.9498C157.034 52.9545 157.06 52.9592 157.088 52.9638C157.116 52.9638 157.149 52.9685 157.186 52.9778C157.233 52.9918 157.265 53.0082 157.284 53.0268C157.303 53.0408 157.319 53.0548 157.333 53.0688C157.347 53.0782 157.363 53.0875 157.382 53.0968C157.401 53.1062 157.433 53.1108 157.48 53.1108C157.494 53.1388 157.52 53.1668 157.557 53.1948C157.599 53.2228 157.643 53.2508 157.69 53.2788C157.741 53.3068 157.79 53.3348 157.837 53.3628C157.888 53.3908 157.926 53.4188 157.949 53.4468C157.958 53.4562 157.963 53.4632 157.963 53.4678C157.968 53.4725 157.975 53.4795 157.984 53.4888L158.026 53.8248L157.872 54.2448L157.83 54.5388L157.487 54.7138L156.92 54.9378L156.577 54.8888C156.456 54.8702 156.348 54.8702 156.255 54.8888C156.162 54.9075 156.075 54.9168 155.996 54.9168H155.226L155.142 54.7068L155.198 54.5038L156.213 54.3988L156.549 54.3568L156.969 53.9088L156.906 53.7058L156.598 53.6498L156.059 53.5028L155.968 53.5518L155.674 53.4188L155.485 53.2928L155.268 52.8168L155.107 52.5018V52.2148ZM159.597 55.0428C159.564 55.0428 159.506 55.0475 159.422 55.0568C159.342 55.0615 159.284 55.0638 159.247 55.0638L159.093 55.0778L158.974 54.9938C158.969 54.9238 158.974 54.8422 158.988 54.7488C159.006 54.6555 159.016 54.5832 159.016 54.5318C159.072 54.5318 159.083 54.4758 159.051 54.3638C159.013 54.2518 158.999 54.1632 159.009 54.0978C159.013 54.0232 159.025 53.9602 159.044 53.9088C159.062 53.8528 159.065 53.8132 159.051 53.7898C159.041 53.7618 159.03 53.7315 159.016 53.6988C159.002 53.6615 158.99 53.6195 158.981 53.5728L159.065 53.1178C159.083 53.0478 159.095 52.9708 159.1 52.8868C159.104 52.8028 159.107 52.7188 159.107 52.6348C159.111 52.5462 159.118 52.4598 159.128 52.3758C159.137 52.2872 159.156 52.2032 159.184 52.1238L159.191 51.9418C159.195 51.9232 159.207 51.9045 159.226 51.8858C159.244 51.8672 159.261 51.8508 159.275 51.8368C159.293 51.8182 159.307 51.8018 159.317 51.7878C159.331 51.7692 159.331 51.7482 159.317 51.7248C159.326 51.6735 159.31 51.6292 159.268 51.5918C159.23 51.5545 159.188 51.5335 159.142 51.5288C159.16 51.4962 159.174 51.4402 159.184 51.3608C159.198 51.2768 159.207 51.1835 159.212 51.0808C159.221 50.9782 159.226 50.8708 159.226 50.7588C159.23 50.6468 159.233 50.5442 159.233 50.4508L159.38 50.3738C159.459 50.3785 159.534 50.3925 159.604 50.4158C159.678 50.4345 159.769 50.4555 159.877 50.4788C159.933 50.4882 159.982 50.4975 160.024 50.5068C160.066 50.5115 160.103 50.5185 160.136 50.5278L160.234 50.6608C160.234 50.6655 160.231 50.6772 160.227 50.6958C160.227 50.7145 160.224 50.7332 160.22 50.7518C160.22 50.7705 160.217 50.7892 160.213 50.8078C160.213 50.8218 160.21 50.8288 160.206 50.8288C160.178 50.8242 160.166 50.8662 160.171 50.9548V51.6548C160.143 51.6828 160.119 51.7202 160.101 51.7668C160.082 51.8088 160.066 51.8578 160.052 51.9138C160.038 51.9698 160.024 52.0282 160.01 52.0888C160 52.1448 159.991 52.1985 159.982 52.2498C160.066 52.3245 160.138 52.3478 160.199 52.3198C160.264 52.2918 160.308 52.2475 160.332 52.1868L160.745 52.2148H161.011L161.13 52.2568C161.242 52.2942 161.342 52.3338 161.431 52.3758C161.524 52.4178 161.608 52.4505 161.683 52.4738L161.809 52.7818L161.802 52.8658C161.797 52.8705 161.809 52.9288 161.837 53.0408C161.865 53.1482 161.874 53.3138 161.865 53.5378C161.855 53.7618 161.848 53.9718 161.844 54.1678C161.839 54.3638 161.837 54.4992 161.837 54.5738C161.837 54.5785 161.841 54.5972 161.851 54.6298C161.865 54.6625 161.883 54.6975 161.907 54.7348L161.858 54.8118L161.725 54.8748C161.659 54.8795 161.587 54.8912 161.508 54.9098C161.433 54.9285 161.363 54.9378 161.298 54.9378C161.27 54.9378 161.246 54.9285 161.228 54.9098C161.209 54.8865 161.167 54.8772 161.102 54.8818L161.004 54.7978C161.013 54.7372 161.015 54.6882 161.011 54.6508C161.006 54.6088 160.999 54.5738 160.99 54.5458C160.98 54.5132 160.971 54.4852 160.962 54.4618C160.952 54.4385 160.948 54.4152 160.948 54.3918C160.952 54.3592 160.955 54.3288 160.955 54.3008C160.959 54.2682 160.964 54.2332 160.969 54.1958C160.978 54.1352 160.987 54.0675 160.997 53.9928C161.011 53.9182 161.027 53.8365 161.046 53.7478C161.064 53.6405 161.069 53.5448 161.06 53.4608C161.055 53.3722 161.057 53.2882 161.067 53.2088L160.822 52.7118C160.803 52.7072 160.784 52.7025 160.766 52.6978C160.747 52.6932 160.726 52.6862 160.703 52.6768C160.628 52.6582 160.565 52.6535 160.514 52.6628C160.462 52.6675 160.413 52.6722 160.367 52.6768C160.367 52.6908 160.341 52.6792 160.29 52.6418C160.243 52.5998 160.203 52.5602 160.171 52.5228C160.091 52.4575 160.033 52.4458 159.996 52.4878C159.963 52.5252 159.935 52.5765 159.912 52.6418C159.916 52.6932 159.923 52.7282 159.933 52.7468C159.947 52.7655 159.961 52.7795 159.975 52.7888C159.993 52.7935 160.01 52.7935 160.024 52.7888C160 52.8075 159.982 52.8425 159.968 52.8938C159.954 52.9405 159.942 52.9942 159.933 53.0548C159.928 53.1108 159.926 53.1715 159.926 53.2368C159.93 53.2975 159.937 53.3535 159.947 53.4048C159.956 53.4608 159.949 53.5472 159.926 53.6638C159.907 53.7805 159.902 53.9298 159.912 54.1118C159.912 54.1818 159.909 54.2565 159.905 54.3358C159.9 54.4105 159.895 54.4852 159.891 54.5598C159.886 54.6298 159.881 54.6952 159.877 54.7558C159.872 54.8118 159.87 54.8562 159.87 54.8888V54.9098C159.781 54.9845 159.69 55.0288 159.597 55.0428ZM165.95 52.4668C165.964 52.5462 165.971 52.6162 165.971 52.6768C165.971 52.7328 165.969 52.7888 165.964 52.8448C165.964 52.8962 165.966 52.9475 165.971 52.9988C165.98 53.0455 165.999 53.0968 166.027 53.1528C166.018 53.1715 165.994 53.2088 165.957 53.2648C165.924 53.3162 165.901 53.3698 165.887 53.4258C165.878 53.4772 165.871 53.5168 165.866 53.5448C165.861 53.5728 165.857 53.5915 165.852 53.6008C165.866 53.6102 165.878 53.6288 165.887 53.6568C165.892 53.6802 165.887 53.7105 165.873 53.7478C165.859 53.7805 165.831 53.8272 165.789 53.8878C165.705 53.9998 165.658 54.0955 165.649 54.1748C165.64 54.2495 165.621 54.3078 165.593 54.3498C165.584 54.3592 165.553 54.3732 165.502 54.3918C165.455 54.4105 165.399 54.4338 165.334 54.4618C165.269 54.4852 165.203 54.5132 165.138 54.5458C165.073 54.5785 165.021 54.6112 164.984 54.6438C164.905 54.6578 164.835 54.6765 164.774 54.6998C164.713 54.7232 164.639 54.7395 164.55 54.7488C164.466 54.7675 164.38 54.7908 164.291 54.8188C164.202 54.8422 164.153 54.8538 164.144 54.8538C163.925 54.8538 163.794 54.8608 163.752 54.8748C163.715 54.8888 163.67 54.8958 163.619 54.8958L162.982 54.6648L162.688 54.2378C162.688 54.1258 162.683 54.0325 162.674 53.9578C162.669 53.8785 162.662 53.8108 162.653 53.7548C162.644 53.6942 162.637 53.6382 162.632 53.5868C162.627 53.5355 162.627 53.4772 162.632 53.4118C162.646 53.3978 162.667 53.3652 162.695 53.3138C162.723 53.2578 162.751 53.1948 162.779 53.1248C162.812 53.0548 162.842 52.9825 162.87 52.9078C162.903 52.8332 162.926 52.7702 162.94 52.7188C162.977 52.6115 163.005 52.5182 163.024 52.4388C163.043 52.3548 163.057 52.2802 163.066 52.2148C163.103 52.1915 163.134 52.1658 163.157 52.1378C163.18 52.1098 163.204 52.0865 163.227 52.0678C163.418 51.9558 163.584 51.8648 163.724 51.7948C163.864 51.7202 163.995 51.6735 164.116 51.6548L164.326 51.6408C164.349 51.6455 164.37 51.6502 164.389 51.6548C164.408 51.6595 164.426 51.6642 164.445 51.6688C164.473 51.6782 164.499 51.6852 164.522 51.6898C164.545 51.6898 164.559 51.6898 164.564 51.6898L164.704 51.9068C164.704 51.9488 164.695 51.9838 164.676 52.0118C164.657 52.0352 164.676 52.0515 164.732 52.0608C164.793 52.0748 164.825 52.0842 164.83 52.0888V52.0958C164.905 52.0958 164.982 52.0795 165.061 52.0468C165.14 52.0095 165.22 51.9908 165.299 51.9908C165.318 51.9908 165.35 52.0002 165.397 52.0188C165.444 52.0328 165.493 52.0515 165.544 52.0748C165.595 52.0982 165.642 52.1215 165.684 52.1448C165.731 52.1635 165.763 52.1775 165.782 52.1868C165.773 52.2568 165.775 52.3058 165.789 52.3338C165.803 52.3618 165.822 52.3828 165.845 52.3968C165.868 52.4062 165.889 52.4155 165.908 52.4248C165.931 52.4295 165.945 52.4435 165.95 52.4668ZM164.697 54.2168C164.767 54.1702 164.835 54.0208 164.9 53.7688C164.937 53.6335 164.968 53.5332 164.991 53.4678C165.019 53.3978 165.033 53.3325 165.033 53.2718C165.033 53.1692 164.998 53.0478 164.928 52.9078C164.891 52.8332 164.863 52.7702 164.844 52.7188C164.825 52.6675 164.811 52.6162 164.802 52.5648C164.765 52.5462 164.744 52.5182 164.739 52.4808C164.739 52.4388 164.72 52.3968 164.683 52.3548C164.636 52.3175 164.608 52.3035 164.599 52.3128C164.59 52.3222 164.58 52.3268 164.571 52.3268H164.508C164.471 52.3268 164.419 52.3338 164.354 52.3478C164.293 52.3618 164.244 52.3945 164.207 52.4458C164.151 52.5065 164.102 52.5555 164.06 52.5928C164.023 52.6255 164.002 52.6465 163.997 52.6558C163.95 52.7445 163.908 52.8215 163.871 52.8868C163.834 52.9475 163.803 52.9965 163.78 53.0338L163.717 53.1808C163.689 53.2508 163.677 53.3442 163.682 53.4608C163.691 53.4795 163.701 53.5215 163.71 53.5868C163.719 53.6475 163.691 53.7128 163.626 53.7828C163.612 53.7968 163.598 53.8248 163.584 53.8668C163.57 53.9042 163.561 53.9485 163.556 53.9998C163.551 54.0512 163.556 54.1025 163.57 54.1538C163.589 54.2052 163.624 54.2495 163.675 54.2868C163.74 54.3335 163.808 54.3802 163.878 54.4268C163.948 54.4688 163.992 54.4898 164.011 54.4898H164.088C164.116 54.4898 164.142 54.4968 164.165 54.5108L164.697 54.2168ZM166.546 51.9418L166.553 51.9348L166.595 51.9138C166.637 51.8952 166.676 51.8858 166.714 51.8858C166.807 51.8718 166.872 51.8298 166.91 51.7598L167.498 51.7668C167.53 51.7855 167.572 51.8018 167.624 51.8158C167.675 51.8252 167.705 51.8345 167.715 51.8438C167.738 51.8532 167.754 51.8672 167.764 51.8858C167.773 51.8998 167.803 51.9162 167.855 51.9348C167.855 52.0282 167.869 52.1495 167.897 52.2988C167.929 52.4482 167.983 52.5975 168.058 52.7468C168.034 52.7235 168.03 52.7305 168.044 52.7678C168.058 52.8005 168.081 52.8495 168.114 52.9148C168.146 52.9802 168.184 53.0548 168.226 53.1388C168.272 53.2182 168.317 53.2928 168.359 53.3628C168.401 53.4328 168.436 53.4935 168.464 53.5448C168.492 53.5915 168.506 53.6125 168.506 53.6078C168.594 53.7805 168.657 53.9882 168.695 54.2308C168.723 54.2402 168.79 54.1095 168.898 53.8388C168.949 53.7128 168.993 53.6055 169.031 53.5168C169.068 53.4235 169.098 53.3535 169.122 53.3068C169.089 53.2462 169.059 53.1832 169.031 53.1178C169.003 53.0525 168.97 53.0198 168.933 53.0198V52.9568C168.933 52.9382 168.933 52.9242 168.933 52.9148C168.937 52.9008 168.94 52.8892 168.94 52.8798C168.94 52.8565 168.923 52.7982 168.891 52.7048C168.877 52.6442 168.879 52.5812 168.898 52.5158C168.916 52.4505 168.923 52.3992 168.919 52.3618C168.886 52.3105 168.856 52.2568 168.828 52.2008C168.804 52.1402 168.762 52.0865 168.702 52.0398C168.669 52.0118 168.66 51.9605 168.674 51.8858C168.678 51.8392 168.685 51.8088 168.695 51.7948C168.699 51.7855 168.702 51.7762 168.702 51.7668L168.919 51.6688C168.937 51.6735 168.956 51.6758 168.975 51.6758C168.993 51.6712 169.012 51.6665 169.031 51.6618C169.063 51.6525 169.094 51.6432 169.122 51.6338C169.15 51.6198 169.175 51.5942 169.199 51.5568C169.25 51.5802 169.301 51.5988 169.353 51.6128C169.409 51.6222 169.439 51.6315 169.444 51.6408C169.448 51.6595 169.493 51.6735 169.577 51.6828C169.6 51.7762 169.635 51.8858 169.682 52.0118C169.728 52.1332 169.768 52.2475 169.801 52.3548C169.838 52.4575 169.852 52.5695 169.843 52.6908C169.838 52.8122 169.833 52.9125 169.829 52.9918C169.861 53.0105 169.892 53.0268 169.92 53.0408C169.948 53.0548 169.969 53.0852 169.983 53.1318C169.992 53.1552 170.004 53.1878 170.018 53.2298C170.032 53.2672 170.039 53.2952 170.039 53.3138C170.039 53.3278 170.032 53.3558 170.018 53.3978C170.004 53.4352 169.99 53.4748 169.976 53.5168C169.91 53.5075 169.91 53.5658 169.976 53.6918C170.022 53.8272 170.071 53.9275 170.123 53.9928L170.291 53.8388L170.606 53.1388L170.795 52.6208L171.012 52.2008L171.25 51.9138H171.523L171.642 52.0468L171.635 52.2078L171.474 52.5018L171.124 53.1248C171.026 53.1575 170.96 53.2112 170.928 53.2858C170.895 53.3605 170.895 53.4305 170.928 53.4958L170.606 54.1188L170.557 54.4758V54.6018L170.291 54.7418H170.123L169.836 54.5598L169.738 54.3708C169.719 54.3568 169.7 54.3428 169.682 54.3288C169.668 54.3148 169.654 54.3008 169.64 54.2868C169.616 54.2635 169.593 54.2378 169.57 54.2098C169.546 54.1772 169.537 54.1445 169.542 54.1118C169.551 54.0465 169.551 54.0045 169.542 53.9858C169.537 53.9672 169.53 53.9695 169.521 53.9928C169.474 54.0628 169.418 54.1235 169.353 54.1748C169.292 54.2262 169.231 54.2728 169.171 54.3148C169.11 54.3568 169.056 54.3942 169.01 54.4268C168.963 54.4548 168.933 54.4828 168.919 54.5108L168.87 54.6088L168.709 54.8468L168.156 54.8608L168.044 54.9098L167.743 54.7348C167.729 54.6835 167.701 54.6228 167.659 54.5528C167.617 54.4828 167.584 54.4012 167.561 54.3078C167.509 54.0745 167.474 53.9135 167.456 53.8248C167.442 53.7315 167.421 53.6802 167.393 53.6708C167.374 53.6615 167.358 53.6452 167.344 53.6218C167.334 53.5938 167.311 53.5635 167.274 53.5308C167.274 53.4888 167.274 53.4538 167.274 53.4258C167.278 53.3932 167.276 53.3675 167.267 53.3488C167.257 53.3255 167.239 53.3068 167.211 53.2928C167.183 53.2788 167.141 53.2695 167.085 53.2648C167.052 53.2042 167.01 53.1202 166.959 53.0128C166.912 52.9008 166.863 52.7888 166.812 52.6768C166.765 52.5648 166.718 52.4645 166.672 52.3758C166.625 52.2825 166.588 52.2242 166.56 52.2008C166.55 52.1962 166.543 52.1915 166.539 52.1868C166.534 52.1822 166.527 52.1775 166.518 52.1728L166.546 51.9418Z" fill="black"/>
<path d="M159.411 57.8663L159.95 57.9713L159.838 58.2443V58.2653C159.843 58.3073 159.817 58.4473 159.761 58.6853C159.757 58.6993 159.736 58.7203 159.698 58.7483C159.666 58.7763 159.626 58.8089 159.579 58.8463C159.537 58.8836 159.495 58.9233 159.453 58.9653C159.411 59.0026 159.383 59.0399 159.369 59.0773L158.354 60.6313L158.144 60.8413C158.13 60.8459 158.116 60.8529 158.102 60.8623C158.093 60.8669 158.084 60.8693 158.074 60.8693L158.137 60.9603L157.808 61.4573L157.381 62.0173L157.276 62.1643L156.45 62.1223L156.324 61.7653L156.562 61.7023L156.73 61.5273L156.856 61.4363V61.2613C156.875 61.2519 156.891 61.2403 156.905 61.2263C156.924 61.2169 156.943 61.2053 156.961 61.1913C156.989 61.1679 157.02 61.1399 157.052 61.1073C157.085 61.0746 157.115 61.0349 157.143 60.9883C157.246 60.8063 157.248 60.7153 157.15 60.7153C157.188 60.6873 157.213 60.6663 157.227 60.6523C157.274 60.6056 157.304 60.5449 157.318 60.4703C157.337 60.3256 157.328 60.2323 157.29 60.1903C157.267 60.1856 157.216 60.1366 157.136 60.0433C157.094 59.9966 157.059 59.9569 157.031 59.9243C157.003 59.8916 156.98 59.8706 156.961 59.8613C156.933 59.7819 156.891 59.6933 156.835 59.5953C156.784 59.4973 156.726 59.3993 156.66 59.3013C156.6 59.1986 156.537 59.0983 156.471 59.0003C156.406 58.9023 156.345 58.8113 156.289 58.7273C156.121 58.4753 155.974 58.3049 155.848 58.2163L155.799 58.0273C155.855 57.9666 155.925 57.9316 156.009 57.9223C156.103 57.9129 156.168 57.8803 156.205 57.8243L156.604 57.6983C156.688 57.7449 156.765 57.7986 156.835 57.8593C156.933 57.9479 157.034 58.0086 157.136 58.0413C157.136 58.1019 157.155 58.1556 157.192 58.2023C157.23 58.2489 157.272 58.2933 157.318 58.3353C157.365 58.3726 157.409 58.4076 157.451 58.4403C157.498 58.4729 157.531 58.5056 157.549 58.5383C157.549 58.5429 157.552 58.5593 157.556 58.5873C157.566 58.6106 157.57 58.6363 157.57 58.6643C157.575 58.6923 157.575 58.7179 157.57 58.7413C157.57 58.7599 157.563 58.7693 157.549 58.7693C157.526 58.7693 157.528 58.7809 157.556 58.8043C157.584 58.8276 157.638 58.8579 157.717 58.8953C157.717 58.9093 157.727 58.9349 157.745 58.9723C157.769 59.0096 157.797 59.0516 157.829 59.0983C157.862 59.1449 157.895 59.1939 157.927 59.2453C157.96 59.2919 157.988 59.3363 158.011 59.3783C158.063 59.4763 158.098 59.5696 158.116 59.6583C158.135 59.7423 158.151 59.7889 158.165 59.7983C158.175 59.7983 158.193 59.7936 158.221 59.7843C158.249 59.7703 158.28 59.7563 158.312 59.7423C158.345 59.7236 158.373 59.7026 158.396 59.6793C158.42 59.6513 158.431 59.6233 158.431 59.5953C158.431 59.5673 158.422 59.5439 158.403 59.5253L158.354 59.4623C158.34 59.4389 158.329 59.4179 158.319 59.3993C158.31 59.3806 158.31 59.3619 158.319 59.3433C158.371 59.3013 158.408 59.2663 158.431 59.2383C158.455 59.2056 158.485 59.1636 158.522 59.1123C158.532 59.0889 158.55 59.0633 158.578 59.0353C158.611 59.0026 158.644 58.9723 158.676 58.9443C158.714 58.9163 158.746 58.8929 158.774 58.8743C158.802 58.8509 158.816 58.8369 158.816 58.8323C158.854 58.7576 158.884 58.6853 158.907 58.6153C158.931 58.5406 158.961 58.4356 158.998 58.3003C159.003 58.2769 159.015 58.2536 159.033 58.2303C159.057 58.2069 159.08 58.1859 159.103 58.1673C159.131 58.1439 159.155 58.1253 159.173 58.1113C159.197 58.0926 159.211 58.0763 159.215 58.0623C159.22 58.0529 159.222 58.0483 159.222 58.0483C159.222 58.0436 159.225 58.0366 159.229 58.0273L159.411 57.8663ZM171.591 58.0133L171.458 58.9933L171.479 59.3923L171.444 59.8123L171.339 60.2183L170.933 60.8203C170.756 60.9556 170.565 61.0466 170.359 61.0933C170.154 61.1399 169.932 61.1516 169.694 61.1283L169.365 60.9813H169.176C169.102 60.9813 168.971 60.9089 168.784 60.7643C168.705 60.7036 168.637 60.6499 168.581 60.6033C168.567 60.5939 168.553 60.5846 168.539 60.5753C168.53 60.5659 168.521 60.5566 168.511 60.5473C168.511 60.5099 168.507 60.4633 168.497 60.4073C168.488 60.3513 168.474 60.2813 168.455 60.1973C168.441 60.1133 168.427 60.0479 168.413 60.0013C168.404 59.9499 168.397 59.9126 168.392 59.8893C168.392 59.8753 168.395 59.8589 168.399 59.8403C168.404 59.8169 168.404 59.7959 168.399 59.7773C168.399 59.7539 168.392 59.7353 168.378 59.7213C168.364 59.7073 168.339 59.7003 168.301 59.7003L168.322 59.3083C168.341 59.2569 168.35 59.2219 168.35 59.2033C168.35 59.1846 168.348 59.1683 168.343 59.1543C168.339 59.1403 168.336 59.1216 168.336 59.0983C168.336 59.0749 168.348 59.0353 168.371 58.9793L168.406 58.7203C168.448 58.7343 168.481 58.7226 168.504 58.6853C168.532 58.6479 168.549 58.6036 168.553 58.5523C168.563 58.4963 168.56 58.4473 168.546 58.4053C168.532 58.3586 168.504 58.3353 168.462 58.3353C168.444 58.2979 168.432 58.2583 168.427 58.2163C168.423 58.1696 168.425 58.1463 168.434 58.1463C168.434 58.1183 168.432 58.0856 168.427 58.0483C168.423 58.0109 168.42 57.9409 168.42 57.8383L168.623 57.6703C168.679 57.6749 168.749 57.6796 168.833 57.6843C168.917 57.6843 169.004 57.6843 169.092 57.6843C169.186 57.6843 169.274 57.6866 169.358 57.6913C169.442 57.6913 169.51 57.6959 169.561 57.7053L169.617 57.7963C169.589 57.8896 169.575 57.9573 169.575 57.9993C169.571 58.0273 169.571 58.0506 169.575 58.0693L169.561 58.3913C169.547 58.4193 169.533 58.4613 169.519 58.5173C169.51 58.5686 169.501 58.6269 169.491 58.6923C169.487 58.7529 169.482 58.8159 169.477 58.8813C169.473 58.9466 169.47 59.0026 169.47 59.0493C169.447 59.1286 169.424 59.2126 169.4 59.3013C169.377 59.3853 169.375 59.4646 169.393 59.5393C169.403 59.5626 169.407 59.5929 169.407 59.6303C169.412 59.6629 169.428 59.7259 169.456 59.8193C169.447 59.8473 169.44 59.8823 169.435 59.9243C169.431 59.9663 169.428 60.0106 169.428 60.0573C169.433 60.0993 169.442 60.1436 169.456 60.1903C169.475 60.2323 169.501 60.2673 169.533 60.2953L169.799 60.5053L170.219 60.5403C170.266 60.6009 170.308 60.6313 170.345 60.6313C170.383 60.6266 170.413 60.5776 170.436 60.4843L170.681 60.3373L170.877 59.8193L170.884 59.4973V59.1543C170.978 59.0889 171.029 59.0189 171.038 58.9443C171.048 58.8696 170.999 58.7809 170.891 58.6783L170.87 57.8733L171.01 57.7473L171.437 57.7823L171.591 58.0133ZM174.986 57.8733V58.1953H174.804L174.538 58.4053C174.309 58.4379 174.122 58.4846 173.978 58.5453C173.833 58.6013 173.765 58.6806 173.775 58.7833C173.765 58.8066 173.761 58.8346 173.761 58.8673C173.761 58.8953 173.777 58.9093 173.81 58.9093L173.67 59.6093L173.607 59.6863V60.4633L173.565 60.8553L173.425 60.9953L172.627 60.9393L172.452 60.7013L172.501 60.5753L172.473 60.1903L172.557 59.4833L172.627 58.9653C172.627 58.9513 172.629 58.9396 172.634 58.9303C172.634 58.9209 172.634 58.9093 172.634 58.8953C172.638 58.8813 172.641 58.8696 172.641 58.8603C172.664 58.8416 172.678 58.7996 172.683 58.7343C172.692 58.6689 172.694 58.6269 172.69 58.6083C172.69 58.5756 172.687 58.5453 172.683 58.5173C172.683 58.4893 172.673 58.4286 172.655 58.3353C172.65 58.3073 172.634 58.2746 172.606 58.2373C172.582 58.1953 172.557 58.1579 172.529 58.1253L172.62 57.9083H172.753L173.474 57.7753L173.649 57.8593C173.635 57.9386 173.632 58.0063 173.642 58.0623C173.656 58.1136 173.674 58.1533 173.698 58.1813C173.726 58.2093 173.756 58.2279 173.789 58.2373C173.821 58.2419 173.849 58.2373 173.873 58.2233L173.999 58.1533C174.022 58.1439 174.029 58.1183 174.02 58.0763C174.015 58.0343 174.017 57.9806 174.027 57.9153L174.895 57.7613L174.986 57.8733Z" fill="black"/>
<path d="M155.107 66.0924L155.408 65.6094C155.427 65.6094 155.445 65.6094 155.464 65.6094C155.483 65.6047 155.504 65.6001 155.527 65.5954C155.564 65.5907 155.613 65.5837 155.674 65.5744C155.735 65.5651 155.805 65.5557 155.884 65.5464C156.201 65.5091 156.318 65.4321 156.234 65.3154L157.235 65.1684H157.494L157.543 65.2244L157.571 65.4554L157.452 65.5464L157.102 65.5534L156.647 65.7774L156.143 65.9384L156.059 66.1274L156.22 66.5194L156.416 66.5474L156.507 66.7504L156.675 66.7364L156.773 66.8554C156.815 66.8414 156.857 66.8321 156.899 66.8274C156.941 66.8181 156.978 66.8181 157.011 66.8274C157.034 66.8321 157.06 66.8367 157.088 66.8414C157.116 66.8414 157.149 66.8461 157.186 66.8554C157.233 66.8694 157.265 66.8857 157.284 66.9044C157.303 66.9184 157.319 66.9324 157.333 66.9464C157.347 66.9557 157.363 66.9651 157.382 66.9744C157.401 66.9837 157.433 66.9884 157.48 66.9884C157.494 67.0164 157.52 67.0444 157.557 67.0724C157.599 67.1004 157.643 67.1284 157.69 67.1564C157.741 67.1844 157.79 67.2124 157.837 67.2404C157.888 67.2684 157.926 67.2964 157.949 67.3244C157.958 67.3337 157.963 67.3407 157.963 67.3454C157.968 67.3501 157.975 67.3571 157.984 67.3664L158.026 67.7024L157.872 68.1224L157.83 68.4164L157.487 68.5914L156.92 68.8154L156.577 68.7664C156.456 68.7477 156.348 68.7477 156.255 68.7664C156.162 68.7851 156.075 68.7944 155.996 68.7944H155.226L155.142 68.5844L155.198 68.3814L156.213 68.2764L156.549 68.2344L156.969 67.7864L156.906 67.5834L156.598 67.5274L156.059 67.3804L155.968 67.4294L155.674 67.2964L155.485 67.1704L155.268 66.6944L155.107 66.3794V66.0924ZM160.598 67.2124C160.542 67.2217 160.493 67.2404 160.451 67.2684C160.409 67.2964 160.371 67.3267 160.339 67.3594C160.311 67.3874 160.285 67.4154 160.262 67.4434C160.238 67.4667 160.217 67.4807 160.199 67.4854C160.175 67.4714 160.145 67.4644 160.108 67.4644C160.07 67.4597 160.033 67.4667 159.996 67.4854C159.963 67.4994 159.937 67.5274 159.919 67.5694C159.905 67.6067 159.909 67.6604 159.933 67.7304L159.961 68.2274L159.933 68.4864V68.6194L159.8 68.8084L159.569 68.8644H159.107C159.055 68.8737 159.013 68.8667 158.981 68.8434C158.953 68.8154 158.939 68.7477 158.939 68.6404V68.6264L159.051 68.2064L159.072 67.7304L159.121 66.8344L159.205 66.2324C159.2 66.2091 159.195 66.1647 159.191 66.0994C159.186 66.0341 159.179 65.9524 159.17 65.8544C159.165 65.7517 159.16 65.6677 159.156 65.6024C159.156 65.5371 159.156 65.4857 159.156 65.4484C159.156 65.4577 159.172 65.4461 159.205 65.4134C159.237 65.3761 159.265 65.3317 159.289 65.2804C159.312 65.2244 159.321 65.1637 159.317 65.0984C159.312 65.0331 159.272 64.9724 159.198 64.9164L159.268 64.3354C159.3 64.3167 159.303 64.2607 159.275 64.1674L159.415 64.0274L159.506 64.0134C159.543 64.0227 159.58 64.0297 159.618 64.0344C159.66 64.0344 159.706 64.0391 159.758 64.0484C159.8 64.0577 159.837 64.0647 159.87 64.0694C159.907 64.0694 159.94 64.0764 159.968 64.0904L160.108 64.1674V64.3004C160.117 64.3237 160.126 64.3611 160.136 64.4124C160.145 64.4591 160.152 64.5174 160.157 64.5874C160.157 64.6201 160.154 64.6574 160.15 64.6994C160.145 64.7414 160.14 64.7811 160.136 64.8184C160.136 64.8557 160.133 64.8884 160.129 64.9164C160.124 64.9444 160.122 64.9607 160.122 64.9654C160.122 64.9701 160.119 64.9817 160.115 65.0004C160.115 65.0191 160.112 65.0377 160.108 65.0564C160.103 65.0751 160.098 65.0914 160.094 65.1054C160.089 65.1194 160.084 65.1241 160.08 65.1194C160.075 65.1194 160.068 65.1334 160.059 65.1614C160.054 65.1894 160.047 65.2244 160.038 65.2664C160.033 65.3037 160.028 65.3434 160.024 65.3854C160.019 65.4274 160.019 65.4601 160.024 65.4834C160.028 65.5067 160.033 65.5441 160.038 65.5954C160.042 65.6421 160.047 65.7074 160.052 65.7914C160.052 65.8334 160.052 65.8707 160.052 65.9034C160.056 65.9361 160.059 65.9641 160.059 65.9874C160.059 66.0154 160.061 66.0364 160.066 66.0504L160.024 66.5614L159.898 66.6664C159.832 66.7971 159.802 66.8881 159.807 66.9394C159.816 66.9907 159.844 67.0327 159.891 67.0654C159.975 67.0514 160.033 67.0397 160.066 67.0304C160.098 67.0211 160.124 67.0047 160.143 66.9814C160.161 66.9581 160.178 66.9277 160.192 66.8904C160.21 66.8531 160.248 66.7994 160.304 66.7294C160.304 66.7387 160.346 66.7177 160.43 66.6664C160.504 66.6197 160.539 66.5637 160.535 66.4984C160.595 66.4704 160.64 66.4471 160.668 66.4284C160.696 66.4097 160.728 66.3911 160.766 66.3724C160.854 66.3071 160.913 66.2441 160.941 66.1834C160.973 66.1227 160.999 66.0947 161.018 66.0994C161.032 66.0994 161.041 66.1017 161.046 66.1064C161.055 66.1111 161.069 66.1181 161.088 66.1274C161.111 66.1134 161.148 66.0901 161.2 66.0574C161.256 66.0201 161.321 65.9687 161.396 65.9034C161.442 65.8661 161.484 65.8311 161.522 65.7984C161.564 65.7657 161.603 65.7331 161.641 65.7004L161.816 65.7214L161.935 65.9734L161.858 66.0224C161.83 66.0504 161.802 66.0854 161.774 66.1274C161.746 66.1694 161.718 66.2114 161.69 66.2534C161.666 66.2907 161.641 66.3257 161.613 66.3584C161.585 66.3864 161.557 66.4027 161.529 66.4074C161.412 66.5007 161.281 66.5871 161.137 66.6664C160.997 66.7457 160.859 66.8321 160.724 66.9254C160.7 66.9394 160.679 66.9557 160.661 66.9744C160.642 66.9884 160.623 67.0024 160.605 67.0164C160.595 67.0257 160.591 67.0421 160.591 67.0654C160.595 67.0841 160.6 67.1051 160.605 67.1284C160.609 67.1471 160.612 67.1657 160.612 67.1844C160.612 67.2031 160.607 67.2124 160.598 67.2124ZM162.236 68.7384L161.746 68.9834L161.599 68.9484L161.431 68.7244C161.412 68.7011 161.396 68.6777 161.382 68.6544C161.368 68.6264 161.349 68.5961 161.326 68.5634C161.274 68.4794 161.223 68.4094 161.172 68.3534C161.125 68.2927 161.092 68.2437 161.074 68.2064C161.069 68.1971 161.06 68.1807 161.046 68.1574C161.032 68.1341 161.006 68.1131 160.969 68.0944L160.941 67.7234C160.959 67.7141 160.943 67.6907 160.892 67.6534C160.845 67.6114 160.796 67.5601 160.745 67.4994C160.665 67.3687 160.644 67.2777 160.682 67.2264C160.747 67.2357 160.819 67.2427 160.899 67.2474C160.983 67.2521 161.074 67.2497 161.172 67.2404C161.204 67.2357 161.232 67.2334 161.256 67.2334C161.279 67.2334 161.302 67.2334 161.326 67.2334L161.424 67.3314C161.424 67.3361 161.421 67.3384 161.417 67.3384C161.417 67.3384 161.417 67.3407 161.417 67.3454C161.426 67.3594 161.44 67.3827 161.459 67.4154C161.482 67.4481 161.512 67.4947 161.55 67.5554C161.606 67.6021 161.645 67.6441 161.669 67.6814C161.692 67.7187 161.708 67.7537 161.718 67.7864C161.727 67.8191 161.734 67.8517 161.739 67.8844C161.743 67.9171 161.757 67.9544 161.781 67.9964C161.795 68.0104 161.816 68.0337 161.844 68.0664C161.872 68.0944 161.907 68.1294 161.949 68.1714C161.991 68.2134 162.021 68.2461 162.04 68.2694C162.058 68.2927 162.07 68.3067 162.075 68.3114C162.084 68.3207 162.084 68.3301 162.075 68.3394C162.07 68.3487 162.07 68.3534 162.075 68.3534L162.25 68.6124L162.236 68.7384ZM163.474 64.4474C163.483 64.4101 163.488 64.3751 163.488 64.3424C163.492 64.3051 163.497 64.2677 163.502 64.2304C163.502 64.1977 163.502 64.1697 163.502 64.1464C163.506 64.1231 163.509 64.1021 163.509 64.0834L163.544 64.0064C163.558 64.0017 163.576 63.9994 163.6 63.9994C163.623 63.9994 163.651 63.9971 163.684 63.9924C163.782 63.9877 163.845 63.9761 163.873 63.9574C163.873 63.9527 163.884 63.9434 163.908 63.9294C163.922 63.9154 163.933 63.9061 163.943 63.9014C163.947 63.9014 163.964 63.9037 163.992 63.9084C164.02 63.9131 164.057 63.9224 164.104 63.9364C164.183 63.9551 164.239 63.9644 164.272 63.9644C164.314 63.9644 164.337 63.9621 164.342 63.9574C164.346 63.9527 164.36 63.9527 164.384 63.9574L164.447 64.0764L164.51 64.4334L164.363 64.6784C164.358 64.6831 164.353 64.6877 164.349 64.6924C164.349 64.6971 164.344 64.7017 164.335 64.7064C164.311 64.7204 164.283 64.7414 164.251 64.7694L164.23 64.7904L164.02 64.8114C163.992 64.8021 163.959 64.7927 163.922 64.7834C163.884 64.7694 163.84 64.7531 163.789 64.7344C163.737 64.7157 163.693 64.6994 163.656 64.6854C163.618 64.6667 163.586 64.6527 163.558 64.6434L163.523 64.6084L163.474 64.4474ZM164.342 65.6514L164.314 65.9034L164.342 66.0084L164.3 66.1204L164.321 66.2814L164.286 66.4144L164.307 66.4564L164.279 66.7714L164.251 67.4364C164.251 67.4691 164.246 67.5111 164.237 67.5624C164.227 67.6091 164.22 67.6604 164.216 67.7164C164.211 67.7677 164.211 67.8214 164.216 67.8774C164.22 67.9287 164.234 67.9731 164.258 68.0104C164.253 68.0804 164.246 68.1621 164.237 68.2554C164.227 68.3487 164.211 68.4561 164.188 68.5774C164.15 68.6287 164.111 68.6754 164.069 68.7174C164.031 68.7547 163.959 68.7757 163.852 68.7804C163.791 68.7851 163.73 68.7897 163.67 68.7944C163.614 68.7991 163.56 68.8061 163.509 68.8154C163.481 68.8201 163.453 68.8247 163.425 68.8294C163.397 68.8341 163.366 68.8411 163.334 68.8504L163.159 68.6264C163.163 68.6031 163.17 68.5401 163.18 68.4374C163.194 68.3301 163.205 68.2041 163.215 68.0594C163.224 67.9147 163.229 67.7607 163.229 67.5974C163.233 67.4341 163.229 67.2824 163.215 67.1424L163.257 67.0094L163.32 66.7014L163.341 66.4564L163.383 66.3724L163.39 66.3094L163.432 66.1204L163.467 65.7354L164.097 65.4904L164.342 65.6514ZM166.656 67.7304L166.684 68.2274L166.656 68.4864V68.6194L166.523 68.8084L166.292 68.8644L165.69 68.9764C165.638 68.9857 165.596 68.9787 165.564 68.9554C165.536 68.9274 165.522 68.8597 165.522 68.7524V68.7384L165.634 68.2064L165.655 67.7304V67.4644L165.739 66.8624C165.734 66.8391 165.729 66.7947 165.725 66.7294C165.72 66.6641 165.713 66.5824 165.704 66.4844C165.699 66.4331 165.697 66.3864 165.697 66.3444C165.697 66.3024 165.694 66.2651 165.69 66.2324V66.0854C165.69 66.0901 165.706 66.0761 165.739 66.0434C165.771 66.0061 165.799 65.9617 165.823 65.9104C165.846 65.8544 165.855 65.7937 165.851 65.7284C165.846 65.6631 165.806 65.6024 165.732 65.5464L165.851 64.3354C165.883 64.3167 165.886 64.2607 165.858 64.1674L165.998 64.0274L166.089 64.0134C166.107 64.0181 166.138 64.0227 166.18 64.0274C166.222 64.0274 166.266 64.0297 166.313 64.0344C166.359 64.0344 166.404 64.0367 166.446 64.0414C166.492 64.0414 166.527 64.0437 166.551 64.0484C166.593 64.0577 166.646 64.0647 166.712 64.0694C166.777 64.0694 166.824 64.0764 166.852 64.0904L166.992 64.1674V64.3004C167.006 64.3284 167.003 64.3681 166.985 64.4194C166.971 64.4661 166.966 64.5221 166.971 64.5874C166.971 64.6201 166.968 64.6574 166.964 64.6994C166.959 64.7414 166.954 64.7811 166.95 64.8184C166.95 64.8557 166.947 64.8884 166.943 64.9164C166.938 64.9444 166.936 64.9607 166.936 64.9654C166.936 64.9747 166.933 64.9864 166.929 65.0004L166.922 65.0564C166.922 65.0751 166.917 65.0914 166.908 65.1054C166.903 65.1194 166.898 65.1241 166.894 65.1194C166.889 65.1194 166.877 65.1334 166.859 65.1614C166.845 65.1894 166.828 65.2244 166.81 65.2664C166.796 65.3037 166.784 65.3434 166.775 65.3854C166.765 65.4274 166.763 65.4601 166.768 65.4834C166.772 65.5067 166.777 65.5441 166.782 65.5954C166.786 65.6421 166.791 65.7074 166.796 65.7914C166.796 65.8334 166.796 65.8707 166.796 65.9034C166.8 65.9361 166.803 65.9641 166.803 65.9874C166.803 66.0154 166.805 66.0364 166.81 66.0504L166.761 66.4634L166.775 66.6664C166.709 66.7971 166.679 66.8881 166.684 66.9394C166.693 66.9907 166.721 67.0327 166.768 67.0654L166.656 67.7304ZM169.158 67.7304L169.186 68.2274L169.158 68.4864V68.6194L169.025 68.8084L168.794 68.8644L168.192 68.9764C168.14 68.9857 168.098 68.9787 168.066 68.9554C168.038 68.9274 168.024 68.8597 168.024 68.7524V68.7384L168.136 68.2064L168.157 67.7304V67.4644L168.241 66.8624C168.236 66.8391 168.231 66.7947 168.227 66.7294C168.222 66.6641 168.215 66.5824 168.206 66.4844C168.201 66.4331 168.199 66.3864 168.199 66.3444C168.199 66.3024 168.196 66.2651 168.192 66.2324V66.0854C168.192 66.0901 168.208 66.0761 168.241 66.0434C168.273 66.0061 168.301 65.9617 168.325 65.9104C168.348 65.8544 168.357 65.7937 168.353 65.7284C168.348 65.6631 168.308 65.6024 168.234 65.5464L168.353 64.3354C168.385 64.3167 168.388 64.2607 168.36 64.1674L168.5 64.0274L168.591 64.0134C168.609 64.0181 168.64 64.0227 168.682 64.0274C168.724 64.0274 168.768 64.0297 168.815 64.0344C168.861 64.0344 168.906 64.0367 168.948 64.0414C168.994 64.0414 169.029 64.0437 169.053 64.0484C169.095 64.0577 169.148 64.0647 169.214 64.0694C169.279 64.0694 169.326 64.0764 169.354 64.0904L169.494 64.1674V64.3004C169.508 64.3284 169.505 64.3681 169.487 64.4194C169.473 64.4661 169.468 64.5221 169.473 64.5874C169.473 64.6201 169.47 64.6574 169.466 64.6994C169.461 64.7414 169.456 64.7811 169.452 64.8184C169.452 64.8557 169.449 64.8884 169.445 64.9164C169.44 64.9444 169.438 64.9607 169.438 64.9654C169.438 64.9747 169.435 64.9864 169.431 65.0004L169.424 65.0564C169.424 65.0751 169.419 65.0914 169.41 65.1054C169.405 65.1194 169.4 65.1241 169.396 65.1194C169.391 65.1194 169.379 65.1334 169.361 65.1614C169.347 65.1894 169.33 65.2244 169.312 65.2664C169.298 65.3037 169.286 65.3434 169.277 65.3854C169.267 65.4274 169.265 65.4601 169.27 65.4834C169.274 65.5067 169.279 65.5441 169.284 65.5954C169.288 65.6421 169.293 65.7074 169.298 65.7914C169.298 65.8334 169.298 65.8707 169.298 65.9034C169.302 65.9361 169.305 65.9641 169.305 65.9874C169.305 66.0154 169.307 66.0364 169.312 66.0504L169.263 66.4634L169.277 66.6664C169.211 66.7971 169.181 66.8881 169.186 66.9394C169.195 66.9907 169.223 67.0327 169.27 67.0654L169.158 67.7304ZM170.372 66.0924L170.673 65.6094C170.691 65.6094 170.71 65.6094 170.729 65.6094C170.747 65.6047 170.768 65.6001 170.792 65.5954C170.829 65.5907 170.878 65.5837 170.939 65.5744C170.999 65.5651 171.069 65.5557 171.149 65.5464C171.466 65.5091 171.583 65.4321 171.499 65.3154L172.5 65.1684H172.759L172.808 65.2244L172.836 65.4554L172.717 65.5464L172.367 65.5534L171.912 65.7774L171.408 65.9384L171.324 66.1274L171.485 66.5194L171.681 66.5474L171.772 66.7504L171.94 66.7364L172.038 66.8554C172.08 66.8414 172.122 66.8321 172.164 66.8274C172.206 66.8181 172.243 66.8181 172.276 66.8274C172.299 66.8321 172.325 66.8367 172.353 66.8414C172.381 66.8414 172.413 66.8461 172.451 66.8554C172.497 66.8694 172.53 66.8857 172.549 66.9044C172.567 66.9184 172.584 66.9324 172.598 66.9464C172.612 66.9557 172.628 66.9651 172.647 66.9744C172.665 66.9837 172.698 66.9884 172.745 66.9884C172.759 67.0164 172.784 67.0444 172.822 67.0724C172.864 67.1004 172.908 67.1284 172.955 67.1564C173.006 67.1844 173.055 67.2124 173.102 67.2404C173.153 67.2684 173.19 67.2964 173.214 67.3244C173.223 67.3337 173.228 67.3407 173.228 67.3454C173.232 67.3501 173.239 67.3571 173.249 67.3664L173.291 67.7024L173.137 68.1224L173.095 68.4164L172.752 68.5914L172.185 68.8154L171.842 68.7664C171.72 68.7477 171.613 68.7477 171.52 68.7664C171.426 68.7851 171.34 68.7944 171.261 68.7944H170.491L170.407 68.5844L170.463 68.3814L171.478 68.2764L171.814 68.2344L172.234 67.7864L172.171 67.5834L171.863 67.5274L171.324 67.3804L171.233 67.4294L170.939 67.2964L170.75 67.1704L170.533 66.6944L170.372 66.3794V66.0924Z" fill="black"/>
<circle cx="162.5" cy="59.5" r="40.6653" stroke="#D9D9D9" stroke-width="0.2"/>
<circle cx="162.5" cy="59.5" r="32.8592" stroke="#D9D9D9" stroke-width="0.2"/>
<circle cx="162.934" cy="59.0663" r="24.6194" stroke="#D9D9D9" stroke-width="0.2"/>
</svg>
